HIERARCHY
ROOT Hips
{
	OFFSET 0.000000 0.000000 0.000000
	CHANNELS 6 Xposition Yposition Zposition Zrotation Yrotation Xrotation 
	JOINT LHipJoint
	{
		OFFSET 0.000000 0.000000 0.000000
		CHANNELS 3 Zrotation Yrotation Xrotation
		JOINT LeftUpLeg
		{
			OFFSET 1.363060 -1.794630 0.839290
			CHANNELS 3 Zrotation Yrotation Xrotation
			JOINT LeftLeg
			{
				OFFSET 2.448110 -6.726130 0.000000
				CHANNELS 3 Zrotation Yrotation Xrotation
				JOINT LeftFoot
				{
					OFFSET 2.562200 -7.039590 0.000000
					CHANNELS 3 Zrotation Yrotation Xrotation
					JOINT LeftToeBase
					{
						OFFSET 0.157640 -0.433110 2.322550
						CHANNELS 3 Zrotation Yrotation Xrotation
						End Site
						{
							OFFSET 0.000000 0.000000 0.000000
						}
					}
				}
			}
		}
	}
	JOINT RHipJoint
	{
		OFFSET 0.000000 0.000000 0.000000
		CHANNELS 3 Zrotation Yrotation Xrotation
		JOINT RightUpLeg
		{
			OFFSET -1.305520 -1.794630 0.839290
			CHANNELS 3 Zrotation Yrotation Xrotation
			JOINT RightLeg
			{
				OFFSET -2.542530 -6.985550 0.000000
				CHANNELS 3 Zrotation Yrotation Xrotation
				JOINT RightFoot
				{
					OFFSET -2.568260 -7.056230 0.000000
					CHANNELS 3 Zrotation Yrotation Xrotation
					JOINT RightToeBase
					{
						OFFSET -0.164730 -0.452590 2.363150
						CHANNELS 3 Zrotation Yrotation Xrotation
						End Site
						{
							OFFSET 0.000000 0.000000 0.000000
						}
					}
				}
			}
		}
	}
}
MOTION
Frames: 22
Frame Time: 0.008333
-22.123569 16.893252 -2.621168 -153.473990 87.930976 -141.783090 -12.616788 5.607983 1.300252 0.099536 13.196770 8.243059 -0.982208 0.441453 6.581106 0.911922 7.118762 9.768921 1.948299 0.000000 -77.536200 7.993111 -0.700980 2.565278 11.387545 -6.000850 -40.415099 3.160396 -0.558694 20.163149 -1.133704 -4.358660 -4.090107 -0.939700 -0.000000 -43.681900
-21.934696 16.908581 -2.569543 -156.589213 87.872929 -145.160635 -12.515405 5.740765 1.362694 0.378723 13.011934 8.374875 -0.866602 0.591964 7.522511 0.961715 7.163203 11.863511 2.150700 0.000000 -80.314200 8.118329 -0.691420 2.529175 11.185233 -5.948014 -39.632653 3.046751 -0.607731 20.958605 -1.215379 -4.530469 -4.900363 -0.844301 0.000000 -42.405900
-21.743528 16.924577 -2.517009 -159.477682 87.788249 -148.319962 -12.424576 5.855751 1.416002 0.706778 12.880193 8.399123 -0.741816 0.740655 8.639245 1.018172 7.089628 14.077640 2.310101 0.000000 -82.819500 8.236696 -0.690436 2.501521 10.982976 -5.870697 -38.804568 2.929670 -0.648792 21.721868 -1.326398 -4.833497 -5.765549 -0.750600 -0.000000 -40.883300
-21.550522 16.941149 -2.464127 -162.178759 87.688696 -151.305239 -12.338332 5.950498 1.470888 1.031637 12.702515 8.375411 -0.600526 0.882574 9.858562 1.096132 7.020948 16.432799 2.464100 -0.000000 -84.819700 8.349338 -0.694701 2.467569 10.785693 -5.806847 -37.931924 2.814260 -0.684652 22.448623 -1.454786 -5.215713 -6.665495 -0.649699 0.000000 -39.198300
-21.356660 16.957812 -2.411044 -164.507807 87.581906 -153.925621 -12.275770 6.022871 1.514210 1.404533 12.605707 8.211648 -0.452216 1.015392 11.292904 1.186522 6.824086 18.881278 2.549100 -0.000000 -86.158600 8.447480 -0.708369 2.435400 10.608366 -5.737082 -37.040572 2.702380 -0.716426 23.153853 -1.596305 -5.660954 -7.584175 -0.538799 0.000000 -37.398700
-21.162505 16.974357 -2.358221 -166.519237 87.484127 -156.236578 -12.230971 6.070062 1.552767 1.781143 12.525386 7.949134 -0.296843 1.132735 12.887898 1.298820 6.603283 21.387044 2.598099 -0.000000 -86.599600 8.533718 -0.728010 2.394282 10.454548 -5.691033 -36.133677 2.598879 -0.745885 23.832993 -1.737037 -6.108666 -8.500526 -0.414000 -0.000000 -35.584600
-20.968638 16.990421 -2.305886 -168.214013 87.408160 -158.235543 -12.204767 6.089739 1.584471 2.153346 12.476968 7.575450 -0.142081 1.230335 14.652289 1.431265 6.377809 23.874118 2.615000 0.000000 -85.997300 8.608324 -0.752869 2.342980 10.328351 -5.675210 -35.222185 2.506802 -0.773901 24.487219 -1.866756 -6.514897 -9.397620 -0.276000 -0.000001 -33.835900
-20.775809 17.005594 -2.254204 -169.594250 87.365658 -159.919614 -12.196711 6.080674 1.605656 2.514864 12.482401 7.074421 0.002038 1.306236 16.600867 1.577883 6.177377 26.219627 2.611699 0.000000 -84.174101 8.671519 -0.782778 2.282352 10.234052 -5.692564 -34.314850 2.428859 -0.800248 25.111907 -1.976571 -6.841098 -10.260430 -0.128200 0.000000 -32.227600
-20.584579 17.019585 -2.203353 -170.742041 87.364640 -161.369325 -12.199833 6.043232 1.613718 2.844219 12.537416 6.455510 0.127572 1.361963 18.712943 1.731988 6.080269 28.300889 2.633900 -0.000000 -81.132400 8.726899 -0.817070 2.211496 10.167552 -5.753212 -33.412997 2.367196 -0.825071 25.699254 -2.058215 -7.050040 -11.078324 0.023699 -0.000000 -30.822400
-20.395162 17.032141 -2.153432 -171.721677 87.409262 -162.646225 -12.208743 5.980101 1.603067 3.130593 12.657353 5.716227 0.228195 1.403588 20.980699 1.883657 6.152698 29.979856 2.726400 0.000000 -76.958800 8.776790 -0.856244 2.132826 10.124397 -5.859200 -32.517451 2.322950 -0.847784 26.239100 -2.107081 -7.119632 -11.844613 0.173100 -0.000000 -29.657200
-20.207853 17.043074 -2.104454 -172.616681 87.500394 -163.832178 -12.217532 5.895386 1.568211 3.363419 12.853977 4.858244 0.302496 1.440011 23.385290 2.024577 6.462895 31.141267 2.935600 0.000000 -71.929000 8.823826 -0.900997 2.049337 10.097561 -6.010307 -31.626017 2.296231 -0.867787 26.720609 -2.121809 -7.041031 -12.556886 0.313100 -0.000000 -28.744100
-20.022963 17.052297 -2.056495 -173.515068 87.635613 -165.013532 -12.221206 5.793621 1.504916 3.533879 13.134970 3.885509 0.353693 1.480590 25.901256 2.149433 7.058773 31.703905 3.290900 -0.000001 -66.369200 8.870387 -0.952043 1.964617 10.078505 -6.202832 -30.735022 2.286181 -0.884394 27.132928 -2.104258 -6.819326 -13.215633 0.437900 -0.000000 -28.072400
-19.840429 17.059871 -2.009563 -174.550783 87.809651 -166.323291 -12.214449 5.677762 1.411863 3.628893 13.493798 2.809381 0.388876 1.531983 28.488905 2.258239 7.974095 31.641695 3.804200 0.000000 -60.857000 8.919865 -1.009591 1.881520 10.055849 -6.432758 -29.839687 2.291106 -0.897261 27.465724 -2.058804 -6.471264 -13.823231 0.543200 0.000000 -27.614601
-19.660215 17.065890 -1.963657 -175.814741 88.016020 -167.850189 -12.195802 5.550060 1.287635 3.648770 13.937213 1.628451 0.414078 1.598860 31.129035 2.350321 9.172653 30.926941 4.429700 -0.000000 -55.546600 8.973221 -1.074391 1.804825 10.023297 -6.687069 -28.936858 2.308431 -0.905658 27.711134 -1.992850 -6.028280 -14.383056 0.627200 0.000000 -27.333300
-19.482057 17.070659 -1.918790 -177.527233 88.242945 -169.814464 -12.160812 5.409602 1.135566 3.581242 14.443038 0.361163 0.436612 1.680189 33.772869 2.430755 10.623418 29.598902 5.117600 0.000000 -50.832200 9.034210 -1.147146 1.736751 9.969839 -6.959622 -28.021767 2.335628 -0.910210 27.862273 -1.913598 -5.523122 -14.897838 0.689600 0.000000 -27.192200
-19.305795 17.074512 -1.874978 -179.899947 88.475191 -172.427582 -12.109081 5.254094 0.957635 3.428113 15.004274 -0.985486 0.460332 1.772940 36.391194 2.501723 12.240490 27.672584 5.773999 -0.000000 -46.601300 9.103278 -1.230235 1.680700 9.890941 -7.238137 -27.090450 2.370158 -0.911648 27.914094 -1.829275 -4.995614 -15.369190 0.732400 0.000000 -27.156900
-19.131068 17.077827 -1.832262 176.696742 88.688740 -176.060693 -12.041224 5.076942 0.759469 3.186454 15.594826 -2.394774 0.488964 1.868541 38.938289 2.569008 13.948577 25.216800 6.316300 0.000000 -42.982400 9.179667 -1.328490 1.638909 9.781853 -7.514472 -26.139818 2.410528 -0.912310 27.862135 -1.746981 -4.482785 -15.797153 0.758700 -0.000000 -27.203700
-18.957644 17.081017 -1.790683 171.748956 88.850278 178.771443 -11.965925 4.867941 0.546147 2.860160 16.194313 -3.854333 0.524362 1.955869 41.380095 2.635573 15.651696 22.279640 6.652100 0.000000 -39.680100 9.254843 -1.451162 1.613826 9.641465 -7.780495 -25.167806 2.456659 -0.915629 27.702809 -1.672858 -4.018850 -16.180280 0.772600 0.000000 -27.317100
-18.785179 17.084444 -1.750348 164.387502 88.913356 171.198609 -11.907926 4.611799 0.326495 2.443891 16.767251 -5.345464 0.568855 2.019076 43.673198 2.707008 17.279202 18.962503 6.724200 -0.000000 -36.690300 9.305434 -1.611809 1.605695 9.463127 -8.032958 -24.172883 2.509936 -0.926006 27.434324 -1.611108 -3.629227 -16.515130 0.778201 0.000000 -27.493000
-18.613525 17.088485 -1.711236 153.274313 88.832291 159.881880 -11.923814 4.301556 0.112239 1.920241 17.284779 -6.852028 0.618724 2.047337 45.776773 2.787551 18.771456 15.370070 6.499600 -0.000001 -33.874500 9.279355 -1.818042 1.609296 9.229931 -8.267681 -23.151962 2.569607 -0.942469 27.061913 -1.563529 -3.324361 -16.796755 0.779000 -0.000001 -27.733400
-18.442269 17.093392 -1.673433 137.027541 88.613270 143.444117 -12.081834 3.980898 -0.081647 1.261145 17.749391 -8.367095 0.646044 2.060693 47.642987 2.879720 20.087104 11.611544 5.974900 0.000000 -31.028700 9.116254 -2.033473 1.607210 8.920434 -8.459723 -22.091854 2.620808 -0.943284 26.605397 -1.528172 -3.091472 -17.012459 0.777100 0.000000 -28.043100
-18.271567 17.099157 -1.636894 116.390696 88.331769 122.639913 -12.338415 3.752473 -0.246275 0.475573 18.190001 -9.902150 0.601437 2.118096 49.235133 2.984389 21.216505 7.830876 5.192400 -0.000001 -28.233001 8.861664 -2.164466 1.578156 8.554718 -8.558645 -20.973235 2.633956 -0.891676 26.089414 -1.500397 -2.907078 -17.144671 0.774200 0.000000 -28.437800
